# Blender 3.4.1
# www.blender.org
o Text
v 4.040000 0.000000 -6.820001
v 1.010000 0.000000 -6.820001
v 1.010000 0.000000 -3.270000
v 1.372130 0.000000 -3.338629
v 1.707870 0.000000 -3.366528
v 2.016250 0.000000 -3.356719
v 2.296296 0.000000 -3.312222
v 2.547037 0.000000 -3.236059
v 2.767500 0.000000 -3.131250
v 2.956712 0.000000 -3.000816
v 3.113703 0.000000 -2.847778
v 3.237499 0.000000 -2.675156
v 3.327129 0.000000 -2.485972
v 3.381619 0.000000 -2.283246
v 3.400000 0.000000 -2.070000
v 3.386962 0.000000 -1.905052
v 3.349028 0.000000 -1.746250
v 3.287969 0.000000 -1.595156
v 3.205556 0.000000 -1.453333
v 3.103559 0.000000 -1.322344
v 2.983750 0.000000 -1.203750
v 2.847899 0.000000 -1.099115
v 2.697778 0.000000 -1.010000
v 2.535157 0.000000 -0.937969
v 2.361806 0.000000 -0.884583
v 2.179497 0.000000 -0.851406
v 1.990000 0.000000 -0.840000
v 1.865006 0.000000 -0.843536
v 1.740047 0.000000 -0.854120
v 1.615156 0.000000 -0.871719
v 1.490371 0.000000 -0.896296
v 1.365723 0.000000 -0.927818
v 1.241250 0.000000 -0.966250
v 1.116985 0.000000 -1.011557
v 0.992963 0.000000 -1.063704
v 0.869219 0.000000 -1.122656
v 0.745787 0.000000 -1.188380
v 0.622702 0.000000 -1.260839
v 0.500000 0.000000 -1.340000
v 0.500000 0.000000 -0.330000
v 0.645139 0.000000 -0.258715
v 0.786111 0.000000 -0.194722
v 0.923750 0.000000 -0.137812
v 1.058889 0.000000 -0.087778
v 1.192361 0.000000 -0.044410
v 1.325000 0.000000 -0.007500
v 1.457639 0.000000 0.023160
v 1.591111 0.000000 0.047778
v 1.726250 0.000000 0.066563
v 1.863889 0.000000 0.079722
v 2.004861 0.000000 0.087465
v 2.150000 0.000000 0.090000
v 2.464867 0.000000 0.071169
v 2.763102 0.000000 0.016019
v 3.042656 0.000000 -0.073438
v 3.301482 0.000000 -0.195185
v 3.537529 0.000000 -0.347211
v 3.748750 0.000000 -0.527500
v 3.933096 0.000000 -0.734039
v 4.088519 0.000000 -0.964815
v 4.212969 0.000000 -1.217813
v 4.304399 0.000000 -1.491019
v 4.360758 0.000000 -1.782419
v 4.380000 0.000000 -2.090000
v 4.360613 0.000000 -2.398513
v 4.303241 0.000000 -2.692268
v 4.209063 0.000000 -2.968594
v 4.079259 0.000000 -3.224815
v 3.915012 0.000000 -3.458258
v 3.717500 0.000000 -3.666250
v 3.487905 0.000000 -3.846117
v 3.227407 0.000000 -3.995185
v 2.937187 0.000000 -4.110781
v 2.618425 0.000000 -4.190231
v 2.272303 0.000000 -4.230862
v 1.900000 0.000000 -4.230000
v 1.900000 0.000000 -5.940001
v 4.040000 0.000000 -5.940001
vn -0.0000 1.0000 -0.0000
vt 0.000000 0.000000
vt 0.012987 0.000000
vt 0.025974 0.000000
vt 0.038961 0.000000
vt 0.051948 0.000000
vt 0.064935 0.000000
vt 0.077922 0.000000
vt 0.090909 0.000000
vt 0.103896 0.000000
vt 0.116883 0.000000
vt 0.129870 0.000000
vt 0.142857 0.000000
vt 0.155844 0.000000
vt 0.168831 0.000000
vt 0.181818 0.000000
vt 0.194805 0.000000
vt 0.207792 0.000000
vt 0.220779 0.000000
vt 0.233766 0.000000
vt 0.246753 0.000000
vt 0.259740 0.000000
vt 0.272727 0.000000
vt 0.285714 0.000000
vt 0.298701 0.000000
vt 0.311688 0.000000
vt 0.324675 0.000000
vt 0.337662 0.000000
vt 0.350649 0.000000
vt 0.363636 0.000000
vt 0.376623 0.000000
vt 0.389610 0.000000
vt 0.402597 0.000000
vt 0.415584 0.000000
vt 0.428571 0.000000
vt 0.441558 0.000000
vt 0.454545 0.000000
vt 0.467532 0.000000
vt 0.480519 0.000000
vt 0.493506 0.000000
vt 0.506494 0.000000
vt 0.519481 0.000000
vt 0.532468 0.000000
vt 0.545455 0.000000
vt 0.558442 0.000000
vt 0.571429 0.000000
vt 0.584416 0.000000
vt 0.597403 0.000000
vt 0.610390 0.000000
vt 0.623377 0.000000
vt 0.636364 0.000000
vt 0.649351 0.000000
vt 0.662338 0.000000
vt 0.675325 0.000000
vt 0.688312 0.000000
vt 0.701299 0.000000
vt 0.714286 0.000000
vt 0.727273 0.000000
vt 0.740260 0.000000
vt 0.753247 0.000000
vt 0.766234 0.000000
vt 0.779221 0.000000
vt 0.792208 0.000000
vt 0.805195 0.000000
vt 0.818182 0.000000
vt 0.831169 0.000000
vt 0.844156 0.000000
vt 0.857143 0.000000
vt 0.870130 0.000000
vt 0.883117 0.000000
vt 0.896104 0.000000
vt 0.909091 0.000000
vt 0.922078 0.000000
vt 0.935065 0.000000
vt 0.948052 0.000000
vt 0.961039 0.000000
vt 0.974026 0.000000
vt 0.987013 0.000000
vt 1.000000 0.000000
s 0
f 3/3/1 77/77/1 2/2/1
f 77/77/1 1/1/1 2/2/1
f 77/77/1 78/78/1 1/1/1
f 3/3/1 76/76/1 77/77/1
f 76/76/1 74/74/1 75/75/1
f 3/3/1 74/74/1 76/76/1
f 3/3/1 73/73/1 74/74/1
f 3/3/1 72/72/1 73/73/1
f 3/3/1 71/71/1 72/72/1
f 3/3/1 4/4/1 71/71/1
f 4/4/1 70/70/1 71/71/1
f 4/4/1 5/5/1 70/70/1
f 5/5/1 69/69/1 70/70/1
f 5/5/1 6/6/1 69/69/1
f 6/6/1 68/68/1 69/69/1
f 7/7/1 68/68/1 6/6/1
f 8/8/1 68/68/1 7/7/1
f 9/9/1 68/68/1 8/8/1
f 9/9/1 67/67/1 68/68/1
f 10/10/1 67/67/1 9/9/1
f 11/11/1 67/67/1 10/10/1
f 11/11/1 66/66/1 67/67/1
f 12/12/1 66/66/1 11/11/1
f 12/12/1 65/65/1 66/66/1
f 13/13/1 65/65/1 12/12/1
f 14/14/1 65/65/1 13/13/1
f 14/14/1 64/64/1 65/65/1
f 15/15/1 64/64/1 14/14/1
f 15/15/1 63/63/1 64/64/1
f 16/16/1 63/63/1 15/15/1
f 17/17/1 63/63/1 16/16/1
f 17/17/1 62/62/1 63/63/1
f 18/18/1 62/62/1 17/17/1
f 19/19/1 62/62/1 18/18/1
f 19/19/1 61/61/1 62/62/1
f 20/20/1 61/61/1 19/19/1
f 40/40/1 38/38/1 39/39/1
f 21/21/1 61/61/1 20/20/1
f 40/40/1 37/37/1 38/38/1
f 21/21/1 60/60/1 61/61/1
f 22/22/1 60/60/1 21/21/1
f 40/40/1 36/36/1 37/37/1
f 40/40/1 35/35/1 36/36/1
f 23/23/1 60/60/1 22/22/1
f 40/40/1 34/34/1 35/35/1
f 40/40/1 33/33/1 34/34/1
f 24/24/1 60/60/1 23/23/1
f 40/40/1 32/32/1 33/33/1
f 24/24/1 59/59/1 60/60/1
f 25/25/1 59/59/1 24/24/1
f 40/40/1 31/31/1 32/32/1
f 40/40/1 30/30/1 31/31/1
f 26/26/1 59/59/1 25/25/1
f 40/40/1 29/29/1 30/30/1
f 40/40/1 28/28/1 29/29/1
f 27/27/1 59/59/1 26/26/1
f 40/40/1 27/27/1 28/28/1
f 40/40/1 59/59/1 27/27/1
f 40/40/1 58/58/1 59/59/1
f 40/40/1 57/57/1 58/58/1
f 40/40/1 56/56/1 57/57/1
f 41/41/1 56/56/1 40/40/1
f 42/42/1 56/56/1 41/41/1
f 42/42/1 55/55/1 56/56/1
f 43/43/1 55/55/1 42/42/1
f 44/44/1 55/55/1 43/43/1
f 45/45/1 55/55/1 44/44/1
f 45/45/1 54/54/1 55/55/1
f 46/46/1 54/54/1 45/45/1
f 47/47/1 54/54/1 46/46/1
f 47/47/1 53/53/1 54/54/1
f 48/48/1 53/53/1 47/47/1
f 49/49/1 53/53/1 48/48/1
f 50/50/1 53/53/1 49/49/1
f 50/50/1 52/52/1 53/53/1
f 51/51/1 52/52/1 50/50/1
