# Blender 3.4.1
# www.blender.org
o Text
v 4.700000 0.000000 -3.410000
v 4.681921 0.000000 -3.920012
v 4.628704 0.000000 -4.398426
v 4.541875 0.000000 -4.842813
v 4.422963 0.000000 -5.250741
v 4.273495 0.000000 -5.619781
v 4.095000 0.000000 -5.947500
v 3.889005 0.000000 -6.231471
v 3.657037 0.000000 -6.469260
v 3.400625 0.000000 -6.658439
v 3.121296 0.000000 -6.796575
v 2.820579 0.000000 -6.881239
v 2.500000 0.000000 -6.910000
v 2.179421 0.000000 -6.881239
v 1.878704 0.000000 -6.796575
v 1.599375 0.000000 -6.658438
v 1.342963 0.000000 -6.469260
v 1.110995 0.000000 -6.231471
v 0.905000 0.000000 -5.947501
v 0.726505 0.000000 -5.619781
v 0.577037 0.000000 -5.250742
v 0.458125 0.000000 -4.842813
v 0.371296 0.000000 -4.398427
v 0.318079 0.000000 -3.920013
v 0.300000 0.000000 -3.410000
v 0.318079 0.000000 -2.899989
v 0.371296 0.000000 -2.421574
v 0.458125 0.000000 -1.977188
v 0.577037 0.000000 -1.569259
v 0.726505 0.000000 -1.200220
v 0.905000 0.000000 -0.872500
v 1.110996 0.000000 -0.588530
v 1.342963 0.000000 -0.350741
v 1.599375 0.000000 -0.161563
v 1.878704 0.000000 -0.023426
v 2.179421 0.000000 0.061238
v 2.500000 0.000000 0.090000
v 2.820579 0.000000 0.061238
v 3.121296 0.000000 -0.023426
v 3.400625 0.000000 -0.161563
v 3.657037 0.000000 -0.350741
v 3.889005 0.000000 -0.588530
v 4.095000 0.000000 -0.872500
v 4.273496 0.000000 -1.200220
v 4.422963 0.000000 -1.569259
v 4.541875 0.000000 -1.977188
v 4.628704 0.000000 -2.421574
v 4.681922 0.000000 -2.899989
v 3.720000 0.000000 -3.410000
v 3.710509 0.000000 -3.023322
v 3.682407 0.000000 -2.664074
v 3.636250 0.000000 -2.333438
v 3.572592 0.000000 -2.032593
v 3.491991 0.000000 -1.762720
v 3.395000 0.000000 -1.525000
v 3.282176 0.000000 -1.320614
v 3.154074 0.000000 -1.150741
v 3.011250 0.000000 -1.016563
v 2.854259 0.000000 -0.919259
v 2.683657 0.000000 -0.860012
v 2.500000 0.000000 -0.840000
v 2.316343 0.000000 -0.860012
v 2.145741 0.000000 -0.919259
v 1.988750 0.000000 -1.016563
v 1.845926 0.000000 -1.150741
v 1.717824 0.000000 -1.320614
v 1.605000 0.000000 -1.525000
v 1.508009 0.000000 -1.762720
v 1.427407 0.000000 -2.032593
v 1.363750 0.000000 -2.333438
v 1.317592 0.000000 -2.664074
v 1.289491 0.000000 -3.023322
v 1.280000 0.000000 -3.410000
v 1.289491 0.000000 -3.796679
v 1.317593 0.000000 -4.155926
v 1.363750 0.000000 -4.486563
v 1.427407 0.000000 -4.787407
v 1.508009 0.000000 -5.057280
v 1.605000 0.000000 -5.295000
v 1.717824 0.000000 -5.499387
v 1.845926 0.000000 -5.669260
v 1.988750 0.000000 -5.803438
v 2.145741 0.000000 -5.900741
v 2.316343 0.000000 -5.959989
v 2.500000 0.000000 -5.980000
v 2.683657 0.000000 -5.959989
v 2.854259 0.000000 -5.900741
v 3.011250 0.000000 -5.803438
v 3.154074 0.000000 -5.669260
v 3.282176 0.000000 -5.499387
v 3.395000 0.000000 -5.295000
v 3.491991 0.000000 -5.057280
v 3.572593 0.000000 -4.787407
v 3.636250 0.000000 -4.486562
v 3.682408 0.000000 -4.155926
v 3.710510 0.000000 -3.796678
vn -0.0000 1.0000 -0.0000
vt 0.000000 0.000000
vt 0.010526 0.000000
vt 0.021053 0.000000
vt 0.031579 0.000000
vt 0.042105 0.000000
vt 0.052632 0.000000
vt 0.063158 0.000000
vt 0.073684 0.000000
vt 0.084211 0.000000
vt 0.094737 0.000000
vt 0.105263 0.000000
vt 0.115789 0.000000
vt 0.126316 0.000000
vt 0.136842 0.000000
vt 0.147368 0.000000
vt 0.157895 0.000000
vt 0.168421 0.000000
vt 0.178947 0.000000
vt 0.189474 0.000000
vt 0.200000 0.000000
vt 0.210526 0.000000
vt 0.221053 0.000000
vt 0.231579 0.000000
vt 0.242105 0.000000
vt 0.252632 0.000000
vt 0.263158 0.000000
vt 0.273684 0.000000
vt 0.284211 0.000000
vt 0.294737 0.000000
vt 0.305263 0.000000
vt 0.315789 0.000000
vt 0.326316 0.000000
vt 0.336842 0.000000
vt 0.347368 0.000000
vt 0.357895 0.000000
vt 0.368421 0.000000
vt 0.378947 0.000000
vt 0.389474 0.000000
vt 0.400000 0.000000
vt 0.410526 0.000000
vt 0.421053 0.000000
vt 0.431579 0.000000
vt 0.442105 0.000000
vt 0.452632 0.000000
vt 0.463158 0.000000
vt 0.473684 0.000000
vt 0.484211 0.000000
vt 0.494737 0.000000
vt 0.505263 0.000000
vt 0.515789 0.000000
vt 0.526316 0.000000
vt 0.536842 0.000000
vt 0.547368 0.000000
vt 0.557895 0.000000
vt 0.568421 0.000000
vt 0.578947 0.000000
vt 0.589474 0.000000
vt 0.600000 0.000000
vt 0.610526 0.000000
vt 0.621053 0.000000
vt 0.631579 0.000000
vt 0.642105 0.000000
vt 0.652632 0.000000
vt 0.663158 0.000000
vt 0.673684 0.000000
vt 0.684211 0.000000
vt 0.694737 0.000000
vt 0.705263 0.000000
vt 0.715789 0.000000
vt 0.726316 0.000000
vt 0.736842 0.000000
vt 0.747368 0.000000
vt 0.757895 0.000000
vt 0.768421 0.000000
vt 0.778947 0.000000
vt 0.789474 0.000000
vt 0.800000 0.000000
vt 0.810526 0.000000
vt 0.821053 0.000000
vt 0.831579 0.000000
vt 0.842105 0.000000
vt 0.852632 0.000000
vt 0.863158 0.000000
vt 0.873684 0.000000
vt 0.884211 0.000000
vt 0.894737 0.000000
vt 0.905263 0.000000
vt 0.915789 0.000000
vt 0.926316 0.000000
vt 0.936842 0.000000
vt 0.947368 0.000000
vt 0.957895 0.000000
vt 0.968421 0.000000
vt 0.978947 0.000000
vt 0.989474 0.000000
vt 1.000000 0.000000
s 0
f 14/14/1 12/12/1 13/13/1
f 14/14/1 11/11/1 12/12/1
f 15/15/1 11/11/1 14/14/1
f 15/15/1 10/10/1 11/11/1
f 16/16/1 10/10/1 15/15/1
f 16/16/1 9/9/1 10/10/1
f 17/17/1 9/9/1 16/16/1
f 18/18/1 9/9/1 17/17/1
f 18/18/1 8/8/1 9/9/1
f 19/19/1 8/8/1 18/18/1
f 19/19/1 85/85/1 8/8/1
f 85/85/1 7/7/1 8/8/1
f 19/19/1 84/84/1 85/85/1
f 86/86/1 7/7/1 85/85/1
f 19/19/1 83/83/1 84/84/1
f 87/87/1 7/7/1 86/86/1
f 20/20/1 83/83/1 19/19/1
f 87/87/1 6/6/1 7/7/1
f 20/20/1 82/82/1 83/83/1
f 88/88/1 6/6/1 87/87/1
f 20/20/1 81/81/1 82/82/1
f 89/89/1 6/6/1 88/88/1
f 20/20/1 80/80/1 81/81/1
f 90/90/1 6/6/1 89/89/1
f 21/21/1 80/80/1 20/20/1
f 90/90/1 5/5/1 6/6/1
f 21/21/1 79/79/1 80/80/1
f 91/91/1 5/5/1 90/90/1
f 21/21/1 78/78/1 79/79/1
f 92/92/1 5/5/1 91/91/1
f 22/22/1 78/78/1 21/21/1
f 92/92/1 4/4/1 5/5/1
f 22/22/1 77/77/1 78/78/1
f 93/93/1 4/4/1 92/92/1
f 23/23/1 77/77/1 22/22/1
f 93/93/1 3/3/1 4/4/1
f 23/23/1 76/76/1 77/77/1
f 94/94/1 3/3/1 93/93/1
f 23/23/1 75/75/1 76/76/1
f 95/95/1 3/3/1 94/94/1
f 24/24/1 75/75/1 23/23/1
f 95/95/1 2/2/1 3/3/1
f 24/24/1 74/74/1 75/75/1
f 96/96/1 2/2/1 95/95/1
f 25/25/1 74/74/1 24/24/1
f 96/96/1 1/1/1 2/2/1
f 25/25/1 73/73/1 74/74/1
f 49/49/1 1/1/1 96/96/1
f 26/26/1 73/73/1 25/25/1
f 26/26/1 72/72/1 73/73/1
f 50/50/1 1/1/1 49/49/1
f 50/50/1 48/48/1 1/1/1
f 26/26/1 71/71/1 72/72/1
f 51/51/1 48/48/1 50/50/1
f 27/27/1 71/71/1 26/26/1
f 51/51/1 47/47/1 48/48/1
f 27/27/1 70/70/1 71/71/1
f 52/52/1 47/47/1 51/51/1
f 28/28/1 70/70/1 27/27/1
f 52/52/1 46/46/1 47/47/1
f 53/53/1 46/46/1 52/52/1
f 28/28/1 69/69/1 70/70/1
f 54/54/1 46/46/1 53/53/1
f 28/28/1 68/68/1 69/69/1
f 29/29/1 68/68/1 28/28/1
f 54/54/1 45/45/1 46/46/1
f 55/55/1 45/45/1 54/54/1
f 29/29/1 67/67/1 68/68/1
f 30/30/1 67/67/1 29/29/1
f 55/55/1 44/44/1 45/45/1
f 56/56/1 44/44/1 55/55/1
f 30/30/1 66/66/1 67/67/1
f 57/57/1 44/44/1 56/56/1
f 30/30/1 65/65/1 66/66/1
f 31/31/1 65/65/1 30/30/1
f 57/57/1 43/43/1 44/44/1
f 58/58/1 43/43/1 57/57/1
f 31/31/1 64/64/1 65/65/1
f 59/59/1 43/43/1 58/58/1
f 31/31/1 63/63/1 64/64/1
f 60/60/1 43/43/1 59/59/1
f 31/31/1 62/62/1 63/63/1
f 32/32/1 62/62/1 31/31/1
f 60/60/1 42/42/1 43/43/1
f 61/61/1 42/42/1 60/60/1
f 32/32/1 61/61/1 62/62/1
f 32/32/1 42/42/1 61/61/1
f 33/33/1 42/42/1 32/32/1
f 33/33/1 41/41/1 42/42/1
f 34/34/1 41/41/1 33/33/1
f 34/34/1 40/40/1 41/41/1
f 35/35/1 40/40/1 34/34/1
f 35/35/1 39/39/1 40/40/1
f 36/36/1 39/39/1 35/35/1
f 36/36/1 38/38/1 39/39/1
f 37/37/1 38/38/1 36/36/1
